<?xml version="1.0" ?><svg id="icons" viewBox="0 0 64 64" xmlns="http://www.w3.org/2000/svg"><defs><style>.cls-1{fill:#ff7652;}.cls-2{fill:#a8a0a2;}.cls-3{fill:#e2dddf;}.cls-4{fill:#fff;}.cls-5,.cls-7,.cls-8{fill:none;stroke-miterlimit:10;stroke-width:2px;}.cls-5{stroke:#524a4d;}.cls-6{fill:#facf6c;}.cls-7{stroke:#a8a0a2;}.cls-8{stroke:#ff7652;}</style></defs><title/><rect class="cls-1" height="16" width="4" x="9" y="48"/><rect class="cls-1" height="16" width="4" x="51" y="48"/><path class="cls-1" d="M32,0a4,4,0,0,0-4,4V7h8V4A4,4,0,0,0,32,0Z"/><polygon class="cls-2" points="59 38 55 40 55 28 59 30 59 38"/><polygon class="cls-2" points="9 40 5 38 5 30 9 28 9 40"/><path class="cls-3" d="M13,48V25C13,14.51,21.51,7,32,7s19,7.51,19,18V48Z"/><polygon class="cls-4" points="39 43 25 43 22 40 22 37 42 37 42 40 39 43"/><polygon class="cls-5" points="39 43 25 43 22 40 22 37 42 37 42 40 39 43"/><rect class="cls-6" height="18" width="4" x="51" y="25"/><rect class="cls-6" height="18" width="4" x="9" y="25"/><path class="cls-5" d="M13,46V25C13,14.51,21.51,7,32,7s19,7.51,19,18V46"/><polyline class="cls-5" points="51 25 55 25 55 43 51 43"/><polyline class="cls-5" points="13 43 9 43 9 25 13 25"/><path class="cls-5" d="M36,25a3,3,0,0,1,6,0"/><path class="cls-5" d="M22,25a3,3,0,0,1,6,0"/><rect class="cls-3" height="16" width="38" x="13" y="48"/><path class="cls-2" d="M0,64V55a7,7,0,0,1,7-7H9V64Z"/><line class="cls-5" x1="9" x2="9" y1="48" y2="64"/><path class="cls-2" d="M64,64V55a7,7,0,0,0-7-7H55V64Z"/><line class="cls-5" x1="55" x2="55" y1="48" y2="64"/><line class="cls-7" x1="42" x2="40" y1="59" y2="59"/><line class="cls-7" x1="38" x2="36" y1="59" y2="59"/><line class="cls-7" x1="34" x2="32" y1="59" y2="59"/><line class="cls-5" x1="9" x2="13" y1="59" y2="59"/><line class="cls-5" x1="51" x2="55" y1="59" y2="59"/><line class="cls-5" x1="51" x2="51" y1="48" y2="64"/><line class="cls-5" x1="13" x2="13" y1="48" y2="64"/><line class="cls-7" x1="25" x2="16" y1="51" y2="51"/><line class="cls-7" x1="48" x2="27" y1="51" y2="51"/><circle class="cls-8" cx="45" cy="31" r="1"/><circle class="cls-8" cx="19" cy="31" r="1"/></svg>